
        <svg xmlns="http://www.w3.org/2000/svg" xmlns:xlink="http://www.w3.org/1999/xlink" version="1.1" width="3171.4285714285716" 
        height="2057.8005375109124" viewBox="0 0 3171.4285714285716 2057.8005375109124">
			
			<g transform="scale(8.571428571428571) translate(10, 10)">
				<defs id="SvgjsDefs1001"></defs><g id="SvgjsG1007" featureKey="rDwwlG-0" transform="matrix(1.590909090909091,0,0,1.590909090909091,95.45454545454545,-9.541958895596592)" fill="#2563eb"><g xmlns="http://www.w3.org/2000/svg" transform="translate(0,-952.36218)"><path style="baseline-shift:baseline;block-progression:tb;color:;direction:ltr;text-indent:0;enable-background:accumulate;text-transform:none;" fill="#2563eb" d="m50,958.36c-24.293,0-44,19.707-44,44s19.707,44,44,44,44-19.707,44-44c0-24.294-19.707-44-44-44zm0,1.1875c23.645,0,42.812,19.168,42.812,42.813,0,14.873-7.5841,27.954-19.094,35.625v-54.625a0.60006,0.60006,0,0,0,-0.593,-0.61h-24.406a0.60006,0.60006,0,0,0,-0.125,0,0.60006,0.60006,0,0,0,-0.46875,0.59375l0.125,21.281h-22.281a0.60006,0.60006,0,0,0,-0.125,0,0.60006,0.60006,0,0,0,-0.5,0.5938v32.094c-10.981-7.7-18.156-20.5-18.156-34.9,0-23.68,19.168-42.85,42.812-42.85zm-0.6875,24.406,23.219,0,0,54.781c-6.546,4.0621-14.259,6.4062-22.531,6.4062h-0.5625v-39.688a0.60006,0.60006,0,0,0,0,-0.2187v-0.062a0.60006,0.60006,0,0,0,0,-0.031l-0.125-21.187zm4.5312,4a0.60006,0.60006,0,0,0,-0.46875,0.59375v3.0312a0.60006,0.60006,0,0,0,0.59375,0.59375h4.3438a0.60006,0.60006,0,0,0,0.59375,-0.59375v-3.0312a0.60006,0.60006,0,0,0,-0.59375,-0.59375h-4.3438a0.60006,0.60006,0,0,0,-0.125,0zm9.5938,0a0.60006,0.60006,0,0,0,-0.5,0.59375v3.0312a0.60006,0.60006,0,0,0,0.625,0.59375h4.3438a0.60006,0.60006,0,0,0,0.594,-0.59v-3.0312a0.60006,0.60006,0,0,0,-0.59375,-0.59375h-4.3438a0.60006,0.60006,0,0,0,-0.125,0zm-8.875,1.1875,3.125,0,0,1.8438-3.125,0,0-1.8438zm9.5938,0,3.125,0,0,1.8438-3.125,0,0-1.8438zm-10.375,6.8125a0.60006,0.60006,0,0,0,-0.40625,0.59375v3.0312a0.60006,0.60006,0,0,0,0.59375,0.59381h4.3438a0.60006,0.60006,0,0,0,0.59375,-0.59381v-3.0312a0.60006,0.60006,0,0,0,-0.59375,-0.59375h-4.3438a0.60006,0.60006,0,0,0,-0.1875,0zm9.5938,0a0.60006,0.60006,0,0,0,-0.4375,0.59375v3.0312a0.60006,0.60006,0,0,0,0.625,0.59381h4.3438a0.60006,0.60006,0,0,0,0.593,-0.62v-3.0312a0.60006,0.60006,0,0,0,-0.59375,-0.59375h-4.3438a0.60006,0.60006,0,0,0,-0.1875,0zm-8.8125,1.1875,3.125,0,0,1.8125-3.125,0,0-1.8125zm9.5938,0,3.125,0,0,1.8125-3.125,0,0-1.8125zm-10.25,6.7813a0.60006,0.60006,0,0,0,-0.53125,0.5937v3.0313a0.60006,0.60006,0,0,0,0.59375,0.5937h4.3438a0.60006,0.60006,0,0,0,0.59375,-0.5937v-3.0313a0.60006,0.60006,0,0,0,-0.59375,-0.5937h-4.3438a0.60006,0.60006,0,0,0,-0.0625,0zm9.5938,0a0.60006,0.60006,0,0,0,-0.5625,0.5937v3.0313a0.60006,0.60006,0,0,0,0.625,0.5937h4.3438a0.60006,0.60006,0,0,0,0.593,-0.6v-3.0313a0.60006,0.60006,0,0,0,-0.59375,-0.5937h-4.3438a0.60006,0.60006,0,0,0,-0.0625,0zm-8.9375,1.2187,3.125,0,0,1.8125-3.125,0,0-1.8125zm9.5938,0,3.125,0,0,1.8125-3.125,0,0-1.8125zm-37.594,0.6875,21.688,0,0,39.281c-7.9866-0.3237-15.413-2.8536-21.688-6.9688a0.60938,0.60938,0,0,0,0,-0.031v-32.281zm3.75,4.125a0.60006,0.60006,0,0,0,-0.46875,0.5938v3.0312a0.60006,0.60006,0,0,0,0.59375,0.5938h4.3438a0.60006,0.60006,0,0,0,0.59375,-0.5938v-3.0312a0.60006,0.60006,0,0,0,-0.59375,-0.5938h-4.3438a0.60006,0.60006,0,0,0,-0.125,0zm9.5938,0a0.60006,0.60006,0,0,0,-0.46875,0.5938v3.0312a0.60006,0.60006,0,0,0,0.59375,0.5938h4.3438a0.60006,0.60006,0,0,0,0.59375,-0.5938v-3.0312a0.60006,0.60006,0,0,0,-0.59375,-0.5938h-4.3438a0.60006,0.60006,0,0,0,-0.125,0zm-8.875,1.1875,3.1562,0,0,1.8438-3.1562,0,0-1.8438zm9.5938,0,3.125,0,0,1.8438-3.125,0,0-1.8438zm13.219,0.7813a0.60006,0.60006,0,0,0,-0.46875,0.5937v3.0313a0.60006,0.60006,0,0,0,0.59375,0.5937h4.3438a0.60006,0.60006,0,0,0,0.59375,-0.5937v-3.0313a0.60006,0.60006,0,0,0,-0.59375,-0.5937h-4.3438a0.60006,0.60006,0,0,0,-0.125,0zm9.5938,0a0.60006,0.60006,0,0,0,-0.5,0.5937v3.0313a0.60006,0.60006,0,0,0,0.625,0.5937h4.3438a0.60006,0.60006,0,0,0,0.593,-0.6v-3.0313a0.60006,0.60006,0,0,0,-0.59375,-0.5937h-4.3438a0.60006,0.60006,0,0,0,-0.125,0zm-8.875,1.1875,3.125,0,0,1.8437-3.125,0,0-1.8437zm9.5938,0,3.125,0,0,1.8437-3.125,0,0-1.8437zm-33.844,4.8437a0.60006,0.60006,0,0,0,-0.46875,0.5938v3.0312a0.60006,0.60006,0,0,0,0.59375,0.5938h4.3438a0.60006,0.60006,0,0,0,0.59375,-0.5938v-3.0312a0.60006,0.60006,0,0,0,-0.59375,-0.5938h-4.3438a0.60006,0.60006,0,0,0,-0.125,0zm9.5938,0a0.60006,0.60006,0,0,0,-0.46875,0.5938v3.0312a0.60006,0.60006,0,0,0,0.59375,0.5938h4.3438a0.60006,0.60006,0,0,0,0.59375,-0.5938v-3.0312a0.60006,0.60006,0,0,0,-0.59375,-0.5938h-4.3438a0.60006,0.60006,0,0,0,-0.125,0zm-8.875,1.1875,3.1562,0,0,1.8438-3.1562,0,0-1.8438zm9.5938,0,3.125,0,0,1.8438-3.125,0,0-1.8438zm13.156,0.7813a0.60006,0.60006,0,0,0,-0.40625,0.5937v3.0313a0.60006,0.60006,0,0,0,0.59375,0.5937h4.3438a0.60006,0.60006,0,0,0,0.59375,-0.5937v-3.0313a0.60006,0.60006,0,0,0,-0.59375,-0.5937h-4.3438a0.60006,0.60006,0,0,0,-0.1875,0zm9.5938,0a0.60006,0.60006,0,0,0,-0.4375,0.5937v3.0313a0.60006,0.60006,0,0,0,0.625,0.5937h4.3438a0.60006,0.60006,0,0,0,0.593,-0.6v-3.0313a0.60006,0.60006,0,0,0,-0.59375,-0.5937h-4.3438a0.60006,0.60006,0,0,0,-0.1875,0zm-8.8125,1.1875,3.125,0,0,1.8125-3.125,0,0-1.8125zm9.5938,0,3.125,0,0,1.8125-3.125,0,0-1.8125zm-33.781,4.8125a0.60006,0.60006,0,0,0,-0.53125,0.625v3a0.60006,0.60006,0,0,0,0.59375,0.625h4.3438a0.60006,0.60006,0,0,0,0.59375,-0.625v-3a0.60006,0.60006,0,0,0,-0.59375,-0.625h-4.3438a0.60006,0.60006,0,0,0,-0.0625,0zm9.5938,0a0.60006,0.60006,0,0,0,-0.53125,0.625v3a0.60006,0.60006,0,0,0,0.59375,0.625h4.3438a0.60006,0.60006,0,0,0,0.59375,-0.625v-3a0.60006,0.60006,0,0,0,-0.59375,-0.625h-4.3438a0.60006,0.60006,0,0,0,-0.0625,0zm-8.9375,1.2187,3.1562,0,0,1.8125-3.1562,0,0-1.8125zm9.5938,0,3.125,0,0,1.8125-3.125,0,0-1.8125zm13.281,0.75a0.60006,0.60006,0,0,0,-0.53125,0.5938v3.0312a0.60006,0.60006,0,0,0,0.59375,0.5938h4.3438a0.60006,0.60006,0,0,0,0.59375,-0.5938v-3.0312a0.60006,0.60006,0,0,0,-0.59375,-0.5938h-4.3438a0.60006,0.60006,0,0,0,-0.0625,0zm9.5938,0a0.60006,0.60006,0,0,0,-0.5625,0.5938v3.0312a0.60006,0.60006,0,0,0,0.625,0.5938h4.3438a0.60006,0.60006,0,0,0,0.591,-0.5v-3.0312a0.60006,0.60006,0,0,0,-0.59375,-0.5938h-4.3438a0.60006,0.60006,0,0,0,-0.0625,0zm-8.9375,1.2188,3.125,0,0,1.8125-3.125,0,0-1.8125zm9.5938,0,3.125,0,0,1.8125-3.125,0,0-1.8125zm-33.844,4.8125a0.60006,0.60006,0,0,0,-0.46875,0.5937v3.0313a0.60006,0.60006,0,0,0,0.59375,0.5937h4.3438a0.60006,0.60006,0,0,0,0.59375,-0.5937v-3.0313a0.60006,0.60006,0,0,0,-0.59375,-0.5937h-4.3438a0.60006,0.60006,0,0,0,-0.125,0zm9.5938,0a0.60006,0.60006,0,0,0,-0.46875,0.5937v3.0313a0.60006,0.60006,0,0,0,0.59375,0.5937h4.3438a0.60006,0.60006,0,0,0,0.59375,-0.5937v-3.0313a0.60006,0.60006,0,0,0,-0.59375,-0.5937h-4.3438a0.60006,0.60006,0,0,0,-0.125,0zm-8.875,1.1875,3.1562,0,0,1.8437-3.1562,0,0-1.8437zm9.5938,0,3.125,0,0,1.8437-3.125,0,0-1.8437z"></path></g></g><g id="SvgjsG1008" featureKey="4AZ1rv-0" transform="matrix(3.533925653923611,0,0,3.533925653923611,-3.9579963279687482,133.14216536720198)" fill="#1d3542"><path d="M1.12 7.76 l3 0 l0 12.24 l-3 0 l0 -12.24 z M16.439999999999998 15 l0 5 l-3 0 l0 -5 c0 -1.38 -0.64 -2.32 -2.1 -2.32 c-1.44 0 -2.1 0.96 -2.1 2.32 l0 5 l-3 0 l0 -5 c0 -3.08 2.12 -5.1 5.1 -5.1 c3.1 0 5.1 2.12 5.1 5.1 z M28.48 15 l0 5 l-3 0 l0 -5 c0 -1.38 -0.64 -2.32 -2.1 -2.32 c-1.44 0 -2.1 0.96 -2.1 2.32 l0 5 l-3 0 l0 -5 c0 -3.08 2.12 -5.1 5.1 -5.1 c3.1 0 5.1 2.12 5.1 5.1 z M29.86 19.68 l0 -2.8 c1.32 0.4 2.98 0.48 4.34 0.48 c0.54 0 0.96 -0.02 1.26 -0.08 c0.28 -0.04 0.42 -0.14 0.42 -0.28 c0 -0.06 -0.02 -0.1 -0.06 -0.16 c-0.2 -0.2 -0.64 -0.3 -0.9 -0.36 s-0.6 -0.14 -1.02 -0.22 c-0.34 -0.06 -0.74 -0.14 -1.2 -0.24 c-1.56 -0.34 -2.76 -1.22 -2.76 -2.9 c0 -2.48 2.42 -3.22 4.46 -3.22 c1.28 0 2.56 0.18 3.82 0.44 l0 2.82 c-1.26 -0.38 -2.68 -0.48 -4 -0.48 c-0.52 0 -0.88 0.02 -1.1 0.08 s-0.34 0.16 -0.34 0.28 c0 0.18 0.18 0.3 0.52 0.36 c0.34 0.08 0.82 0.18 1.4 0.28 c0.52 0.1 1.02 0.2 1.5 0.32 c1.48 0.38 2.54 1.18 2.54 2.78 c0 2.68 -2.7 3.34 -4.86 3.34 c-1.36 0 -2.7 -0.18 -4.02 -0.44 z M45.699999999999996 10.34 l0 2.78 l-2.8 0 l0 1.88 c0 1.54 1.02 2.32 2.5 2.32 c0.18 0 0.34 -0.02 0.48 -0.04 s0.26 -0.04 0.4 -0.06 l0 2.78 c-0.18 0.02 -0.32 0.06 -0.42 0.08 c-0.12 0.02 -0.32 0.02 -0.58 0.02 c-3.02 0 -5.38 -2.06 -5.38 -5.1 l0 -7.4 l3 0 l0 2.74 l2.8 0 z M54.83999999999999 15 c-0.08 -1.46 -0.74 -2.32 -2.26 -2.32 c-0.42 0 -0.78 0.06 -1.08 0.18 c-0.92 0.42 -1.26 1.2 -1.26 2.16 c0 0.32 0.04 0.62 0.14 0.88 c0.3 1.04 1.2 1.42 2.2 1.42 c1.52 0 2.26 -0.82 2.26 -2.32 z M58.63999999999999 20 l-3 0 c-0.2 -0.5 -0.38 -1 -0.5 -1.52 c-0.68 1.12 -1.72 1.62 -3 1.62 c-2.86 0 -4.9 -2.4 -4.9 -5.14 c0 -3.16 2.36 -5.06 5.34 -5.06 c3.18 0 5.18 2.04 5.26 5.1 c0.02 0.26 0.02 0.56 0.02 0.92 c0 1.4 0.22 2.8 0.78 4.08 z M59.37999999999999 19.7 l0 -2.82 c0.24 0.06 0.54 0.12 0.88 0.16 c0.34 0.06 0.7 0.1 1.08 0.12 s0.76 0.04 1.16 0.06 s0.78 0.04 1.12 0.04 c0.94 0 1.6 -0.06 2 -0.16 c0.38 -0.1 0.58 -0.28 0.58 -0.56 c0 -0.24 -0.18 -0.42 -0.36 -0.56 c-0.66 -0.44 -1.44 -0.62 -2.22 -0.8 c-2.2 -0.44 -4.22 -1.32 -4.22 -3.84 c0 -2.98 2.82 -3.68 5.24 -3.68 c1.34 0 2.7 0.14 4 0.46 l0 2.82 c-0.2 -0.06 -0.46 -0.1 -0.78 -0.16 c-0.34 -0.04 -0.68 -0.08 -1.06 -0.12 c-0.78 -0.08 -1.52 -0.12 -2.3 -0.12 c-0.44 0 -1.36 0 -1.78 0.16 c-0.28 0.1 -0.46 0.22 -0.46 0.54 c0 0.16 0.04 0.3 0.12 0.42 c0.08 0.14 0.22 0.24 0.4 0.34 c0.54 0.3 1.24 0.48 1.84 0.62 c0.5 0.12 1 0.26 1.52 0.4 c1.76 0.48 2.92 1.46 2.92 3.34 c0 3.1 -3.08 3.76 -5.56 3.76 c-1.36 0 -2.78 -0.1 -4.12 -0.42 z M76.21999999999998 10.34 l0 2.78 l-2.8 0 l0 1.88 c0 1.54 1.02 2.32 2.5 2.32 c0.18 0 0.34 -0.02 0.48 -0.04 s0.26 -0.04 0.4 -0.06 l0 2.78 c-0.18 0.02 -0.32 0.06 -0.42 0.08 c-0.12 0.02 -0.32 0.02 -0.58 0.02 c-3.02 0 -5.38 -2.06 -5.38 -5.1 l0 -7.4 l3 0 l0 2.74 l2.8 0 z M85.35999999999999 15 c-0.08 -1.46 -0.74 -2.32 -2.26 -2.32 c-0.42 0 -0.78 0.06 -1.08 0.18 c-0.92 0.42 -1.26 1.2 -1.26 2.16 c0 0.32 0.04 0.62 0.14 0.88 c0.3 1.04 1.2 1.42 2.2 1.42 c1.52 0 2.26 -0.82 2.26 -2.32 z M89.16 20 l-3 0 c-0.2 -0.5 -0.38 -1 -0.5 -1.52 c-0.68 1.12 -1.72 1.62 -3 1.62 c-2.86 0 -4.9 -2.4 -4.9 -5.14 c0 -3.16 2.36 -5.06 5.34 -5.06 c3.18 0 5.18 2.04 5.26 5.1 c0.02 0.26 0.02 0.56 0.02 0.92 c0 1.4 0.22 2.8 0.78 4.08 z M97.16 15 l0 -5 l3 0 l0 9.48 c0 3.18 -2.28 5.12 -5.3 5.12 c-1.06 0 -2.12 -0.1 -3.14 -0.44 l0 -3.08 c0.86 0.46 2.02 0.62 2.98 0.62 c1.08 0 1.94 -0.32 2.34 -1.36 c0.08 -0.28 0.12 -0.58 0.12 -0.88 l0 -0.46 c-0.68 0.76 -1.56 1.1 -2.56 1.1 c-2.84 0 -4.64 -2.44 -4.64 -5.1 l0 -5 l3 0 l0 5 c0 1.36 0.54 2.32 2 2.32 c1.42 0 2.2 -0.94 2.2 -2.32 z"></path></g>
			</g>
		</svg>
	